<?xml version="1.0" encoding="UTF-8" standalone="no"?>
<!-- Created with Inkscape (http://www.inkscape.org/) -->

<svg
   width="58.547882mm"
   height="58.54808mm"
   viewBox="0 0 58.547882 58.54808"
   version="1.1"
   id="svg486"
   inkscape:version="1.2.2 (b0a84865, 2022-12-01)"
   sodipodi:docname="basketball.svg"
   xmlns:inkscape="http://www.inkscape.org/namespaces/inkscape"
   xmlns:sodipodi="http://sodipodi.sourceforge.net/DTD/sodipodi-0.dtd"
   xmlns="http://www.w3.org/2000/svg"
   xmlns:svg="http://www.w3.org/2000/svg">
  <sodipodi:namedview
     id="namedview488"
     pagecolor="#505050"
     bordercolor="#eeeeee"
     borderopacity="1"
     inkscape:showpageshadow="0"
     inkscape:pageopacity="0"
     inkscape:pagecheckerboard="0"
     inkscape:deskcolor="#505050"
     inkscape:document-units="mm"
     showgrid="false"
     inkscape:zoom="0.3121562"
     inkscape:cx="-64.070487"
     inkscape:cy="158.57446"
     inkscape:current-layer="layer1" />
  <defs
     id="defs483" />
  <g
     inkscape:label="Ebene 1"
     inkscape:groupmode="layer"
     id="layer1"
     transform="translate(-56.30233,-60.077751)">
    <circle
       style="fill:#d45500;stroke:#000000;stroke-width:3.175;stroke-linecap:round;stop-color:#000000"
       id="path542"
       cx="85.576271"
       cy="89.351692"
       r="27.68644" />
    <path
       id="path544"
       style="fill:#d45500;stroke:#000000;stroke-width:3.175;stroke-linecap:round;stop-color:#000000"
       d="m 106.0266,70.688708 a 27.68644,27.68644 0 0 0 -0.0145,-0.01602 27.68644,27.68644 0 0 0 -0.42426,-0.454236 27.68644,27.68644 0 0 0 -0.43408,-0.443901 27.68644,27.68644 0 0 0 -0.44442,-0.434598 27.68644,27.68644 0 0 0 -0.45372,-0.424264 27.68644,27.68644 0 0 0 -0.46354,-0.413928 27.68644,27.68644 0 0 0 -0.47232,-0.403593 27.68644,27.68644 0 0 0 -0.48111,-0.392741 27.68644,27.68644 0 0 0 -0.49041,-0.381889 27.68644,27.68644 0 0 0 -0.49816,-0.37052 27.68644,27.68644 0 0 0 -0.50694,-0.359668 27.68644,27.68644 0 0 0 -0.5147,-0.347782 27.68644,27.68644 0 0 0 -0.52193,-0.336414 27.68644,27.68644 0 0 0 -0.529685,-0.325044 27.68644,27.68644 0 0 0 -0.536918,-0.312643 27.68644,27.68644 0 0 0 -0.544152,-0.30024 27.68644,27.68644 0 0 0 -0.550354,-0.288354 27.68644,27.68644 0 0 0 -0.556556,-0.275953 27.68644,27.68644 0 0 0 -0.562756,-0.263033 27.68644,27.68644 0 0 0 -0.568441,-0.25063 27.68644,27.68644 0 0 0 -0.574125,-0.237712 27.68644,27.68644 0 0 0 -0.578776,-0.224792 27.68644,27.68644 0 0 0 -0.58446,-0.211874 27.68644,27.68644 0 0 0 -0.588595,-0.198437 27.68644,27.68644 0 0 0 -0.592729,-0.185519 27.68644,27.68644 0 0 0 -0.596862,-0.172082 27.68644,27.68644 0 0 0 -0.600997,-0.158647 27.68644,27.68644 0 0 0 -0.604098,-0.144694 27.68644,27.68644 0 0 0 -0.607198,-0.131775 27.68644,27.68644 0 0 0 -0.609782,-0.117305 27.68644,27.68644 0 0 0 -0.612882,-0.104387 27.68644,27.68644 0 0 0 -0.614433,-0.09043 27.68644,27.68644 0 0 0 -0.6165,-0.07648 27.68644,27.68644 0 0 0 -0.61805,-0.06253 27.68644,27.68644 0 0 0 -0.619601,-0.04858 27.68644,27.68644 0 0 0 -0.620117,-0.03514 27.68644,27.68644 0 0 0 -0.62115,-0.02067 27.68644,27.68644 0 0 0 -0.621151,-0.0067 27.68644,27.68644 0 0 0 -1.810742,0.05891 27.68644,27.68644 0 0 0 -1.802991,0.177767 27.68644,27.68644 0 0 0 -1.787488,0.295072 27.68644,27.68644 0 0 0 -1.764233,0.411345 27.68644,27.68644 0 0 0 -1.733745,0.526066 27.68644,27.68644 0 0 0 -1.69602,0.638204 27.68644,27.68644 0 0 0 -1.650029,0.747758 27.68644,27.68644 0 0 0 -1.597835,0.853694 27.68644,27.68644 0 0 0 -1.538407,0.957048 27.68644,27.68644 0 0 0 -1.472779,1.055232 27.68644,27.68644 0 0 0 -1.400431,1.149284 27.68644,27.68644 0 0 0 -1.3224,1.238684 27.68644,27.68644 0 0 0 -0.866614,0.925525 23.214273,19.079784 0 0 0 20.443714,10.044865 23.214273,19.079784 0 0 0 20.450428,-10.056234 z" />
    <path
       id="path557"
       style="fill:#d45500;stroke:#000000;stroke-width:3.175;stroke-linecap:round;stop-color:#000000"
       d="m 65.132458,108.00374 a 27.68644,27.68644 0 0 0 0.866614,0.92501 27.68644,27.68644 0 0 0 1.3224,1.23869 27.68644,27.68644 0 0 0 1.400431,1.14928 27.68644,27.68644 0 0 0 1.472779,1.05523 27.68644,27.68644 0 0 0 1.538407,0.95705 27.68644,27.68644 0 0 0 1.597835,0.85369 27.68644,27.68644 0 0 0 1.650029,0.74776 27.68644,27.68644 0 0 0 1.69602,0.63821 27.68644,27.68644 0 0 0 1.733745,0.52606 27.68644,27.68644 0 0 0 1.764233,0.41135 27.68644,27.68644 0 0 0 1.787488,0.29507 27.68644,27.68644 0 0 0 1.802991,0.17777 27.68644,27.68644 0 0 0 1.810742,0.0594 27.68644,27.68644 0 0 0 1.810742,-0.0594 27.68644,27.68644 0 0 0 1.802991,-0.17777 27.68644,27.68644 0 0 0 1.787488,-0.29507 27.68644,27.68644 0 0 0 1.76475,-0.41135 27.68644,27.68644 0 0 0 1.733744,-0.52606 27.68644,27.68644 0 0 0 1.695504,-0.63821 27.68644,27.68644 0 0 0 1.650028,-0.74776 27.68644,27.68644 0 0 0 1.597836,-0.85369 27.68644,27.68644 0 0 0 1.538925,-0.95705 27.68644,27.68644 0 0 0 1.47278,-1.05523 27.68644,27.68644 0 0 0 1.40043,-1.14928 27.68644,27.68644 0 0 0 1.3224,-1.23869 27.68644,27.68644 0 0 0 0.86661,-0.92501 A 23.214273,19.079784 0 0 0 85.576172,97.958362 23.214273,19.079784 0 0 0 65.132458,108.00374 Z" />
    <path
       style="font-variation-settings:normal;opacity:1;vector-effect:none;fill:#d45500;fill-opacity:1;stroke:#000000;stroke-width:3.175;stroke-linecap:round;stroke-linejoin:miter;stroke-miterlimit:4;stroke-dasharray:none;stroke-dashoffset:0;stroke-opacity:1;-inkscape-stroke:none;stop-color:#000000;stop-opacity:1"
       d="M 85.576269,61.665251 V 117.03813"
       id="path625" />
    <path
       style="font-variation-settings:normal;opacity:1;vector-effect:none;fill:#d45500;fill-opacity:1;stroke:#000000;stroke-width:3.175;stroke-linecap:round;stroke-linejoin:miter;stroke-miterlimit:4;stroke-dasharray:none;stroke-dashoffset:0;stroke-opacity:1;-inkscape-stroke:none;stop-color:#000000;stop-opacity:1"
       d="m 57.88983,89.35169 h 55.37288"
       id="path627" />
  </g>
</svg>
